<?xml version="1.0" encoding="UTF-8" standalone="no"?>
<!-- Created with Inkscape (http://www.inkscape.org/) -->

<svg
   width="160.05467mm"
   height="105.73425mm"
   viewBox="0 0 160.05467 105.73425"
   version="1.1"
   id="svg1"
   xmlns="http://www.w3.org/2000/svg"
   xmlns:svg="http://www.w3.org/2000/svg"
   xmlns:rdf="http://www.w3.org/1999/02/22-rdf-syntax-ns#"
   xmlns:cc="http://creativecommons.org/ns#"
   xmlns:dc="http://purl.org/dc/elements/1.1/">
  <title
     id="title2">ruby-devtools</title>
  <defs
     id="defs1" />
  <g
     id="layer1"
     transform="translate(-25,-63.451839)">
    <path
       style="fill:#000000;stroke-width:0.257353"
       id="rect1"
       width="160"
       height="94.519661"
       x="25.000004"
       y="74.666428"
       d="M 25.000004,74.666428 H 185 v 91.519662 a 3,3 135 0 1 -3,3 H 27.917674 a 2.9176703,2.9176703 45 0 1 -2.91767,-2.91767 z" />
    <path
       style="fill:#999999;stroke-width:0.264583"
       id="rect2"
       width="160.05467"
       height="11.154919"
       x="25"
       y="63.451839"
       d="m 28,63.451839 154.02742,0 a 3.0272478,3.0272478 45 0 1 3.02725,3.027248 v 8.127671 H 25 v -8.154919 a 3,3 135 0 1 3,-3 z" />
    <circle
       style="fill:#00ff00;stroke-width:0.264583"
       id="path2"
       cx="158.10933"
       cy="69.029297"
       r="3.5731473" />
    <circle
       style="fill:#ffff00;stroke-width:0.264583"
       id="path2-5"
       cx="168.67291"
       cy="69.029297"
       r="3.5731473" />
    <circle
       style="fill:#ff0000;stroke-width:0.264583"
       id="path2-2"
       cx="179.25575"
       cy="69.029297"
       r="3.5731473" />
    <g
       id="g2"
       transform="matrix(6.1315486,0,0,6.1315486,-545.54455,-603.24317)">
      <path
         fill="#9b1010"
         d="m 110.86042,115.62273 -0.52916,6.87916 -6.87917,0.52917 z"
         id="path1"
         style="stroke-width:0.264583" />
      <path
         fill="#b71c1c"
         d="m 107.15626,119.32689 3.175,3.175 0.52916,-6.87916 z"
         id="path2-7"
         style="stroke-width:0.264583" />
      <path
         fill="#c62828"
         d="m 103.91568,116.0864 a 3.0861004,5.9851404 44.999 1 0 4.36448,4.36433 3.0861004,5.9851404 44.999 1 0 -4.36448,-4.36433 z"
         id="path3"
         style="stroke-width:0.264583" />
      <path
         fill="#e53935"
         d="m 102.39376,116.41648 1.85208,-1.85209 2.11667,-1.05833 1.5875,1.05833 -0.79375,2.38125 -2.38125,2.11667 -2.38125,0.79375 -1.05834,-1.5875 z"
         id="path4"
         style="stroke-width:0.264583" />
      <path
         fill="#ff5252"
         d="m 107.95001,114.56439 -1.5875,-1.05833 h 2.91041 z m 2.91041,1.32292 -2.91041,-1.32292 -0.79375,2.38125 z m -6.08541,3.175 3.50176,1.38509 -1.12051,-3.50176 z m -2.38125,0.79375 1.05833,3.175 1.32292,-3.96875 z m -1.05834,-1.5875 v 2.91042 l 1.05834,-1.32292 z"
         id="path5"
         style="stroke-width:0.264583" />
    </g>
  </g>
  <metadata
     id="metadata2">
    <rdf:RDF>
      <cc:Work
         rdf:about="">
        <cc:license
           rdf:resource="http://creativecommons.org/licenses/by-sa/4.0/" />
        <dc:title>ruby-devtools</dc:title>
        <dc:creator>
          <cc:Agent>
            <dc:title>Hal Brodigan</dc:title>
          </cc:Agent>
        </dc:creator>
        <dc:description>Ruby DevTools logo</dc:description>
      </cc:Work>
      <cc:License
         rdf:about="http://creativecommons.org/licenses/by-sa/4.0/">
        <cc:permits
           rdf:resource="http://creativecommons.org/ns#Reproduction" />
        <cc:permits
           rdf:resource="http://creativecommons.org/ns#Distribution" />
        <cc:requires
           rdf:resource="http://creativecommons.org/ns#Notice" />
        <cc:requires
           rdf:resource="http://creativecommons.org/ns#Attribution" />
        <cc:permits
           rdf:resource="http://creativecommons.org/ns#DerivativeWorks" />
        <cc:requires
           rdf:resource="http://creativecommons.org/ns#ShareAlike" />
      </cc:License>
    </rdf:RDF>
  </metadata>
</svg>
